<?xml version="1.0" encoding="utf-8"?>
<!-- Generator: Adobe Illustrator 19.0.0, SVG Export Plug-In . SVG Version: 6.00 Build 0)  -->
<svg version="1.1" id="Capa_1" xmlns="http://www.w3.org/2000/svg" xmlns:xlink="http://www.w3.org/1999/xlink" x="0px" y="0px"
	 viewBox="0 0 70.1 99.5" style="enable-background:new 0 0 70.1 99.5;" xml:space="preserve">
<style type="text/css">
	.st0{fill:#009EA4;}
	.st1{fill:#006E74;}
	.st2{fill:#00CCCF;}
	.st3{fill:#FFC800;}
	.st4{fill:#FF8500;}
	.st5{fill:#FFDE5B;}
</style>
<g id="XMLID_270_">
	<polygon id="XMLID_278_" class="st0" points="23.9,36.4 7.7,94.6 18.2,93.5 34.1,36.4 	"/>
	<polygon id="XMLID_277_" class="st1" points="34.1,36.4 18.2,93.5 23.4,93 27.4,97 44.2,36.4 	"/>
	<polygon id="XMLID_276_" class="st2" points="23.9,36.4 44.5,99.5 52.4,92.6 34.1,36.4 	"/>
	<polygon id="XMLID_275_" class="st0" points="34.1,36.4 52.4,92.6 56.3,89.1 61.6,89.6 44.3,36.4 	"/>
	<polygon id="XMLID_274_" class="st3" points="35.1,3.3 38.7,0 41.6,4 45.9,1.5 47.9,6 52.6,4.5 53.6,9.3 58.5,8.8 58.5,13.8 
		63.4,14.3 62.4,19.1 67.1,20.6 65.1,25.1 69.3,27.6 66.4,31.6 70.1,34.9 66.4,38.2 69.3,42.1 65.1,44.6 67.1,49.1 62.4,50.6 
		63.4,55.5 58.5,56 58.5,60.9 53.6,60.4 52.6,65.2 47.9,63.7 45.9,68.2 41.6,65.7 38.7,69.7 35.1,66.4 31.4,69.7 28.5,65.7 
		24.2,68.2 22.2,63.7 17.5,65.2 16.5,60.4 11.6,60.9 11.6,56 6.7,55.5 7.7,50.6 3,49.1 5,44.6 0.8,42.1 3.7,38.2 0,34.9 3.7,31.6 
		0.8,27.6 5,25.1 3,20.6 7.7,19.1 6.7,14.3 11.6,13.8 11.6,8.8 16.5,9.3 17.5,4.5 22.2,6 24.2,1.5 28.5,4 31.4,0 	"/>
	<path id="XMLID_273_" class="st4" d="M63.9,34.9c0,15.9-12.9,28.8-28.8,28.8c-15.9,0-28.8-12.9-28.8-28.8C6.2,18.9,19.1,6,35.1,6
		C51,6,63.9,18.9,63.9,34.9"/>
	<path id="XMLID_272_" class="st3" d="M59.4,34.9c0,13.4-10.9,24.3-24.3,24.3c-13.4,0-24.3-10.9-24.3-24.3
		c0-13.4,10.9-24.3,24.3-24.3C48.5,10.5,59.4,21.4,59.4,34.9"/>
	<path id="XMLID_271_" class="st5" d="M35.1,10.5c-13.4,0-24.3,10.9-24.3,24.3c0,6.6,2.6,12.6,6.9,17L52,17.5
		C47.6,13.2,41.7,10.5,35.1,10.5"/>
</g>
</svg>
