<?xml version="1.0" encoding="utf-8"?>
<!-- Generator: Adobe Illustrator 19.0.0, SVG Export Plug-In . SVG Version: 6.00 Build 0)  -->
<svg version="1.1" id="Capa_1" xmlns="http://www.w3.org/2000/svg" xmlns:xlink="http://www.w3.org/1999/xlink" x="0px" y="0px"
	 viewBox="0 0 127.4 71.9" style="enable-background:new 0 0 127.4 71.9;" xml:space="preserve">
<style type="text/css">
	.st0{fill:#171921;}
	.st1{fill:#FFAF00;}
	.st2{fill:#40485D;}
	.st3{fill:#2E3444;}
	.st4{fill:#00A5AD;}
	.st5{opacity:0.51;}
	.st6{clip-path:url(#XMLID_80_);fill:#00A5AD;}
	.st7{fill:#003744;}
	.st8{fill:#FF3127;}
	.st9{fill:#FFA400;}
	.st10{opacity:0.24;}
	.st11{clip-path:url(#XMLID_81_);fill:#FFFFFF;}
	.st12{clip-path:url(#XMLID_82_);fill:#FFFFFF;}
	.st13{clip-path:url(#XMLID_83_);fill:#00CCCF;}
	.st14{clip-path:url(#XMLID_84_);fill:#00CCCF;}
	.st15{clip-path:url(#XMLID_85_);fill:#00CCCF;}
	.st16{clip-path:url(#XMLID_86_);fill:#00CCCF;}
	.st17{clip-path:url(#XMLID_87_);fill:#00CCCF;}
	.st18{clip-path:url(#XMLID_88_);fill:#00CCCF;}
	.st19{clip-path:url(#XMLID_89_);fill:#00CCCF;}
	.st20{clip-path:url(#XMLID_90_);fill:#00CCCF;}
	.st21{clip-path:url(#XMLID_91_);fill:#333846;}
	.st22{fill:#CAD1E4;}
	.st23{fill:#333846;}
	.st24{fill:#171912;}
	.st25{fill:#959595;}
	.st26{fill:#F0E7DC;}
	.st27{fill:#FFBD00;}
	.st28{fill:#009EA4;}
</style>
<g id="XMLID_156_">
	<rect id="XMLID_269_" x="84.7" y="14.6" class="st0" width="3.5" height="39.6"/>
	<rect id="XMLID_268_" x="1.1" y="0.3" class="st1" width="84.1" height="47.8"/>
	<rect id="XMLID_267_" x="7.1" y="48.7" class="st2" width="95.3" height="4.3"/>
	<rect id="XMLID_266_" x="1.8" y="52.5" class="st0" width="100.7" height="6.6"/>
	<rect id="XMLID_265_" x="5" y="48.1" class="st3" width="97.5" height="2.3"/>
	<polygon id="XMLID_264_" class="st1" points="87.7,58.8 126.9,58.8 126.9,30.4 112.7,6.1 87.7,6.1 	"/>
	<path id="XMLID_263_" class="st0" d="M117.2,59c0-0.4,0-0.8,0-1.1c0-9.8-7.9-17.7-17.7-17.7c-9.8,0-17.7,7.9-17.7,17.7
		c0,0.4,0,0.8,0,1.1H117.2z"/>
	<path id="XMLID_262_" class="st4" d="M111.4,35.8h11.1V32l-12.2-21.7H91.7v19.8c0,0,4.3,0,6.7,0C103.5,30.1,108.2,32.3,111.4,35.8"
		/>
	<path id="XMLID_261_" class="st4" d="M123.4,28.9c0,0,0.4,0.8,0.4,0.8l3.1,0.7c0,0-8.3-16.6-12.5-21.5c0,0-1,0.9-1.1,1.3
		C113.4,10.2,123.3,28.8,123.4,28.9"/>
	<g id="XMLID_257_" class="st5">
		<g id="XMLID_258_">
			<defs>
				<rect id="XMLID_259_" x="113.4" y="8.9" width="11" height="20.9"/>
			</defs>
			<clipPath id="XMLID_80_">
				<use xlink:href="#XMLID_259_"  style="overflow:visible;"/>
			</clipPath>
			<path id="XMLID_260_" class="st6" d="M124.4,29.8c0,0-10.4-19.3-10.4-19.3c0-0.3,0.5-0.8,0.8-1.1c-0.1-0.2-0.3-0.3-0.4-0.5
				c0,0-1,0.9-1.1,1.3c0,0,10.4,19.4,10.4,19.4L124.4,29.8z"/>
		</g>
	</g>
	<path id="XMLID_256_" class="st0" d="M99,33.3c0-0.1,0-0.1,0-0.2c0-0.6-0.5-1.1-1.1-1.1h-4.3c-0.6,0-1.1,0.5-1.1,1.1
		c0,0.1,0,0.1,0,0.2H99z"/>
	<path id="XMLID_255_" class="st0" d="M24.2,59.1c0,0.7-0.5,1.2-1.2,1.2h-17c-0.7,0-1.2-0.5-1.2-1.2c0-0.7,0.5-1.2,1.2-1.2h17
		C23.7,57.9,24.2,58.4,24.2,59.1"/>
	<path id="XMLID_254_" class="st0" d="M113,59.1c0,0.7-0.5,1.2-1.2,1.2h-17c-0.7,0-1.2-0.5-1.2-1.2c0-0.7,0.5-1.2,1.2-1.2h17
		C112.4,57.9,113,58.4,113,59.1"/>
	<path id="XMLID_253_" class="st0" d="M89.3,59c0,0.6-0.5,1.1-1.1,1.1H35.3c-0.6,0-1.1-0.5-1.1-1.1c0-0.6,0.5-1.1,1.1-1.1h52.9
		C88.8,57.9,89.3,58.4,89.3,59"/>
	<path id="XMLID_252_" class="st0" d="M79.7,60c0,0.4-0.4,0.8-0.8,0.8H47c-0.4,0-0.8-0.4-0.8-0.8c0-0.4,0.4-0.8,0.8-0.8h31.9
		C79.3,59.2,79.7,59.5,79.7,60"/>
	<path id="XMLID_251_" class="st7" d="M110.3,34.7l0-24.4l-0.7,0l0,23.8C109.8,34.2,110.1,34.5,110.3,34.7"/>
	<path id="XMLID_250_" class="st8" d="M2.8,55.1v-1.6c0-0.6-0.5-1-1-1c-0.4,0.5-0.5,1.1-0.5,1.5v1.1H2.8z"/>
	<path id="XMLID_249_" class="st4" d="M16.2,44.4c0,0.3-0.2,0.5-0.5,0.5H0.8c-0.3,0-0.5-0.2-0.5-0.5c0-0.3,0.2-0.5,0.5-0.5h14.9
		C16,44,16.2,44.2,16.2,44.4"/>
	<path id="XMLID_248_" class="st0" d="M127.3,54.4c0,0.3-0.2,0.5-0.5,0.5H117c-0.3,0-0.5-0.2-0.5-0.5c0-0.3,0.2-0.5,0.5-0.5h9.8
		C127.1,53.9,127.3,54.1,127.3,54.4"/>
	<path id="XMLID_247_" class="st9" d="M121.2,42.2c0,2.1-1.7,3.8-3.8,3.8c-2.1,0-3.8-1.7-3.8-3.8c0-2.1,1.7-3.8,3.8-3.8
		C119.5,38.4,121.2,40.1,121.2,42.2"/>
	<g id="XMLID_243_" class="st10">
		<g id="XMLID_244_">
			<defs>
				<rect id="XMLID_245_" x="41.7" y="55.2" width="36.2" height="1.4"/>
			</defs>
			<clipPath id="XMLID_81_">
				<use xlink:href="#XMLID_245_"  style="overflow:visible;"/>
			</clipPath>
			<path id="XMLID_246_" class="st11" d="M77.9,55.9c0,0.4-0.3,0.7-0.7,0.7H42.4c-0.4,0-0.7-0.3-0.7-0.7c0-0.4,0.3-0.7,0.7-0.7h34.8
				C77.6,55.2,77.9,55.5,77.9,55.9"/>
		</g>
	</g>
	<g id="XMLID_239_" class="st10">
		<g id="XMLID_240_">
			<defs>
				<rect id="XMLID_241_" x="118.2" y="51.6" width="7.2" height="1.2"/>
			</defs>
			<clipPath id="XMLID_82_">
				<use xlink:href="#XMLID_241_"  style="overflow:visible;"/>
			</clipPath>
			<path id="XMLID_242_" class="st12" d="M118.2,52.2c0,0.3,0.3,0.6,0.6,0.6h6c0.3,0,0.6-0.3,0.6-0.6c0-0.3-0.3-0.6-0.6-0.6h-6
				C118.5,51.6,118.2,51.8,118.2,52.2"/>
		</g>
	</g>
	<g id="XMLID_235_" class="st10">
		<g id="XMLID_236_">
			<defs>
				<rect id="XMLID_237_" x="95.6" y="10.3" width="8.4" height="7.3"/>
			</defs>
			<clipPath id="XMLID_83_">
				<use xlink:href="#XMLID_237_"  style="overflow:visible;"/>
			</clipPath>
			<path id="XMLID_238_" class="st13" d="M95.8,17.4c0.3,0.3,0.8,0.3,1.1,0l7-7h-2.3l-5.9,5.9C95.5,16.6,95.5,17.1,95.8,17.4"/>
		</g>
	</g>
	<g id="XMLID_231_" class="st10">
		<g id="XMLID_232_">
			<defs>
				<rect id="XMLID_233_" x="94.7" y="12.4" width="17.5" height="17.7"/>
			</defs>
			<clipPath id="XMLID_84_">
				<use xlink:href="#XMLID_233_"  style="overflow:visible;"/>
			</clipPath>
			<path id="XMLID_234_" class="st14" d="M111.4,12.4L94.7,30.1c0.7,0,1.5,0,2.3,0l15.3-16.2L111.4,12.4z"/>
		</g>
	</g>
	<g id="XMLID_227_" class="st10">
		<g id="XMLID_228_">
			<defs>
				<rect id="XMLID_229_" x="91.7" y="10.3" width="7.1" height="7.1"/>
			</defs>
			<clipPath id="XMLID_85_">
				<use xlink:href="#XMLID_229_"  style="overflow:visible;"/>
			</clipPath>
			<polygon id="XMLID_230_" class="st15" points="92.9,10.3 91.7,11.6 91.7,17.5 98.8,10.3 			"/>
		</g>
	</g>
	<g id="XMLID_223_" class="st10">
		<g id="XMLID_224_">
			<defs>
				<rect id="XMLID_225_" x="109.2" y="16" width="5.1" height="5.4"/>
			</defs>
			<clipPath id="XMLID_86_">
				<use xlink:href="#XMLID_225_"  style="overflow:visible;"/>
			</clipPath>
			<path id="XMLID_226_" class="st16" d="M109.4,21.2c0.3,0.3,0.8,0.3,1.1,0l3.7-3.7l-0.8-1.4l-4,4
				C109.1,20.4,109.1,20.9,109.4,21.2"/>
		</g>
	</g>
	<g id="XMLID_219_" class="st10">
		<g id="XMLID_220_">
			<defs>
				<rect id="XMLID_221_" x="109.5" y="25" width="9.8" height="10.1"/>
			</defs>
			<clipPath id="XMLID_87_">
				<use xlink:href="#XMLID_221_"  style="overflow:visible;"/>
			</clipPath>
			<path id="XMLID_222_" class="st17" d="M118.5,25l-9,9c0.4,0.3,0.8,0.7,1.2,1.1l8.6-8.6L118.5,25z"/>
		</g>
	</g>
	<g id="XMLID_215_" class="st10">
		<g id="XMLID_216_">
			<defs>
				<rect id="XMLID_217_" x="103.3" y="22.1" width="11.6" height="10.4"/>
			</defs>
			<clipPath id="XMLID_88_">
				<use xlink:href="#XMLID_217_"  style="overflow:visible;"/>
			</clipPath>
			<path id="XMLID_218_" class="st18" d="M114.2,22.8c-0.8-0.8-2.1-0.8-2.9,0l-8,8c1.5,0.4,2.8,1,4.1,1.8l6.9-6.9
				C115,24.9,115,23.6,114.2,22.8"/>
		</g>
	</g>
	<g id="XMLID_211_" class="st10">
		<g id="XMLID_212_">
			<defs>
				<rect id="XMLID_213_" x="91.7" y="17.3" width="10.1" height="12.7"/>
			</defs>
			<clipPath id="XMLID_89_">
				<use xlink:href="#XMLID_213_"  style="overflow:visible;"/>
			</clipPath>
			<path id="XMLID_214_" class="st19" d="M101.1,20.9c0.8-0.8,0.8-2.1,0-2.9c-0.8-0.8-2.1-0.8-2.9,0l-6.5,6.5V30H92L101.1,20.9z"/>
		</g>
	</g>
	<g id="XMLID_207_" class="st10">
		<g id="XMLID_208_">
			<defs>
				<rect id="XMLID_209_" x="119.1" y="29" width="3.4" height="4.7"/>
			</defs>
			<clipPath id="XMLID_90_">
				<use xlink:href="#XMLID_209_"  style="overflow:visible;"/>
			</clipPath>
			<path id="XMLID_210_" class="st20" d="M120.8,29l-1.1,1.1c-0.8,0.8-0.8,2.1,0,2.9c0.8,0.8,2,0.8,2.8,0.1V32L120.8,29z"/>
		</g>
	</g>
	<g id="XMLID_203_" class="st5">
		<g id="XMLID_204_">
			<defs>
				<rect id="XMLID_205_" x="91.7" y="10.3" width="30.8" height="25.4"/>
			</defs>
			<clipPath id="XMLID_91_">
				<use xlink:href="#XMLID_205_"  style="overflow:visible;"/>
			</clipPath>
			<polygon id="XMLID_206_" class="st21" points="110.3,10.3 91.7,10.3 91.7,11.2 109.4,11.2 121.6,32.9 121.6,35.8 122.5,35.8 
				122.5,32 			"/>
		</g>
	</g>
	<path id="XMLID_202_" class="st22" d="M126.9,40.3h-1.6h-0.4h-1.6c-0.3,0-0.5,0.2-0.5,0.5v5.3c0,0.3,0.2,0.5,0.5,0.5h1.6h0.4h1.6
		c0.3,0,0.5-0.2,0.5-0.5v-5.3C127.4,40.6,127.2,40.3,126.9,40.3"/>
	<path id="XMLID_201_" class="st8" d="M126.9,43.4c0,0.4-0.3,0.6-0.6,0.6h-1.8c-0.4,0-0.6-0.3-0.6-0.6c0-0.4,0.3-0.6,0.6-0.6h1.8
		C126.6,42.8,126.9,43.1,126.9,43.4"/>
	<path id="XMLID_200_" class="st23" d="M113.9,57.8c0,7.8-6.3,14.1-14.1,14.1c-7.8,0-14.1-6.3-14.1-14.1c0-7.8,6.3-14.1,14.1-14.1
		C107.7,43.8,113.9,50,113.9,57.8"/>
	<path id="XMLID_199_" class="st24" d="M109.1,57.8c0,5.1-4.1,9.3-9.3,9.3c-5.1,0-9.3-4.1-9.3-9.3c0-5.1,4.1-9.3,9.3-9.3
		C105,48.6,109.1,52.7,109.1,57.8"/>
	<path id="XMLID_198_" class="st23" d="M106.3,57.8c0,3.6-2.9,6.4-6.4,6.4s-6.4-2.9-6.4-6.4c0-3.6,2.9-6.4,6.4-6.4
		S106.3,54.3,106.3,57.8"/>
	<path id="XMLID_197_" class="st25" d="M104.7,57.8c0,2.7-2.1,4.8-4.8,4.8c-2.7,0-4.8-2.2-4.8-4.8c0-2.7,2.2-4.8,4.8-4.8
		C102.5,53,104.7,55.2,104.7,57.8"/>
	<path id="XMLID_196_" class="st26" d="M103.3,58.3c-0.3,0-0.6,0.1-0.6,0.3c-0.1,0.2,0.1,0.5,0.3,0.6c0.3,0.1,0.6,0,0.7-0.3
		C103.8,58.6,103.6,58.3,103.3,58.3"/>
	<path id="XMLID_195_" class="st26" d="M101.8,60c-0.2,0.2-0.2,0.5-0.1,0.7c0.1,0.3,0.5,0.3,0.8,0.1c0.3-0.2,0.2-0.6,0-0.8
		C102.3,59.8,102,59.8,101.8,60"/>
	<path id="XMLID_194_" class="st26" d="M100.4,60.6c-0.2,0-0.4,0.3-0.4,0.6c0,0.3,0.3,0.5,0.6,0.5c0.3,0,0.5-0.4,0.4-0.6
		C100.8,60.8,100.6,60.6,100.4,60.6"/>
	<path id="XMLID_193_" class="st26" d="M98.8,60.4c-0.2-0.1-0.5,0-0.7,0.2c-0.2,0.2-0.1,0.6,0.2,0.7c0.3,0.1,0.6,0,0.7-0.3
		C99.1,60.8,99,60.5,98.8,60.4"/>
	<path id="XMLID_192_" class="st26" d="M96.9,59.2c-0.3,0.1-0.4,0.5-0.2,0.7c0.2,0.3,0.5,0.3,0.8,0.1c0.2-0.2,0.3-0.5,0.1-0.7
		C97.4,59.2,97.1,59.1,96.9,59.2"/>
	<path id="XMLID_191_" class="st26" d="M97.1,57.8c0-0.2-0.2-0.5-0.5-0.5c-0.3-0.1-0.6,0.2-0.6,0.5c0,0.3,0.3,0.6,0.6,0.5
		C96.9,58.3,97.1,58,97.1,57.8"/>
	<path id="XMLID_190_" class="st26" d="M96.9,56.4c0.3,0.1,0.6,0,0.7-0.2c0.1-0.2,0.1-0.5-0.1-0.7c-0.2-0.2-0.6-0.2-0.8,0.1
		C96.5,56,96.6,56.3,96.9,56.4"/>
	<path id="XMLID_189_" class="st26" d="M98.8,55.2c0.2-0.1,0.3-0.4,0.3-0.7c-0.1-0.3-0.4-0.4-0.7-0.3c-0.3,0.1-0.4,0.5-0.2,0.7
		C98.3,55.2,98.6,55.3,98.8,55.2"/>
	<path id="XMLID_188_" class="st26" d="M100.4,55c0.2,0,0.5-0.1,0.6-0.4c0.1-0.3-0.1-0.6-0.4-0.6c-0.3,0-0.6,0.2-0.6,0.5
		C99.9,54.7,100.1,54.9,100.4,55"/>
	<path id="XMLID_187_" class="st26" d="M102.5,55.6c0.2-0.2,0.2-0.5,0-0.8c-0.3-0.2-0.6-0.2-0.8,0.1c-0.2,0.3-0.1,0.6,0.1,0.7
		C102,55.8,102.3,55.8,102.5,55.6"/>
	<path id="XMLID_186_" class="st26" d="M102.7,57c0.1,0.2,0.3,0.4,0.6,0.3c0.3,0,0.5-0.3,0.4-0.6c-0.1-0.3-0.4-0.5-0.7-0.3
		C102.8,56.5,102.6,56.8,102.7,57"/>
	<path id="XMLID_185_" class="st0" d="M40.2,59c0-0.4,0-0.8,0-1.1c0-9.8-7.9-17.7-17.7-17.7S4.8,48.1,4.8,57.9c0,0.4,0,0.8,0,1.1
		H40.2z"/>
	<path id="XMLID_184_" class="st23" d="M36.3,57.8c0,7.8-6.3,14.1-14.1,14.1S8.2,65.6,8.2,57.8c0-7.8,6.3-14.1,14.1-14.1
		S36.3,50,36.3,57.8"/>
	<path id="XMLID_183_" class="st24" d="M31.5,57.8c0,5.1-4.1,9.3-9.3,9.3c-5.1,0-9.3-4.1-9.3-9.3c0-5.1,4.1-9.3,9.3-9.3
		C27.4,48.6,31.5,52.7,31.5,57.8"/>
	<path id="XMLID_182_" class="st23" d="M28.7,57.8c0,3.6-2.9,6.4-6.4,6.4c-3.6,0-6.4-2.9-6.4-6.4c0-3.6,2.9-6.4,6.4-6.4
		C25.8,51.4,28.7,54.3,28.7,57.8"/>
	<path id="XMLID_181_" class="st25" d="M27.1,57.8c0,2.7-2.2,4.8-4.8,4.8c-2.7,0-4.8-2.2-4.8-4.8c0-2.7,2.1-4.8,4.8-4.8
		C24.9,53,27.1,55.2,27.1,57.8"/>
	<path id="XMLID_180_" class="st26" d="M25.7,58.3c-0.3,0-0.6,0.1-0.6,0.3c-0.1,0.2,0.1,0.5,0.3,0.6c0.3,0.1,0.6,0,0.7-0.3
		C26.2,58.6,26,58.3,25.7,58.3"/>
	<path id="XMLID_179_" class="st26" d="M24.2,60c-0.2,0.2-0.2,0.5-0.1,0.7c0.1,0.3,0.5,0.3,0.8,0.1c0.3-0.2,0.2-0.6,0-0.8
		C24.7,59.8,24.4,59.8,24.2,60"/>
	<path id="XMLID_178_" class="st26" d="M22.7,60.6c-0.2,0-0.4,0.3-0.4,0.6c0,0.3,0.3,0.5,0.6,0.5c0.3,0,0.5-0.4,0.4-0.6
		C23.2,60.8,23,60.6,22.7,60.6"/>
	<path id="XMLID_177_" class="st26" d="M21.1,60.4c-0.2-0.1-0.5,0-0.7,0.2c-0.2,0.2-0.1,0.6,0.2,0.7c0.3,0.1,0.6,0,0.7-0.3
		C21.5,60.8,21.3,60.5,21.1,60.4"/>
	<path id="XMLID_176_" class="st26" d="M19.2,59.2c-0.3,0.1-0.4,0.5-0.2,0.7c0.2,0.3,0.5,0.3,0.8,0.1c0.2-0.2,0.3-0.5,0.1-0.7
		C19.8,59.2,19.5,59.1,19.2,59.2"/>
	<path id="XMLID_175_" class="st26" d="M19.5,57.8c0-0.2-0.2-0.5-0.5-0.5c-0.3-0.1-0.6,0.2-0.6,0.5c0,0.3,0.3,0.6,0.6,0.5
		C19.3,58.3,19.5,58,19.5,57.8"/>
	<path id="XMLID_174_" class="st26" d="M19.2,56.4c0.3,0.1,0.6,0,0.7-0.2c0.1-0.2,0.1-0.5-0.1-0.7c-0.2-0.2-0.6-0.2-0.8,0.1
		C18.8,56,19,56.3,19.2,56.4"/>
	<path id="XMLID_173_" class="st26" d="M21.1,55.2c0.2-0.1,0.3-0.4,0.3-0.7c-0.1-0.3-0.4-0.4-0.7-0.3c-0.3,0.1-0.4,0.5-0.2,0.7
		C20.6,55.2,20.9,55.3,21.1,55.2"/>
	<path id="XMLID_172_" class="st26" d="M22.7,55c0.2,0,0.5-0.1,0.6-0.4c0.1-0.3-0.1-0.6-0.4-0.6c-0.3,0-0.6,0.2-0.6,0.5
		C22.3,54.7,22.5,54.9,22.7,55"/>
	<path id="XMLID_171_" class="st26" d="M24.9,55.6c0.2-0.2,0.2-0.5,0-0.8c-0.3-0.2-0.6-0.2-0.8,0.1c-0.2,0.3-0.1,0.6,0.1,0.7
		C24.4,55.8,24.7,55.8,24.9,55.6"/>
	<path id="XMLID_170_" class="st26" d="M25.1,57c0.1,0.2,0.3,0.4,0.6,0.3c0.3,0,0.5-0.3,0.4-0.6c-0.1-0.3-0.4-0.5-0.7-0.3
		C25.1,56.5,25,56.8,25.1,57"/>
	<rect id="XMLID_169_" x="3.7" y="12.6" class="st4" width="9.8" height="2.5"/>
	<rect id="XMLID_168_" x="3.7" y="16.3" class="st4" width="9.8" height="1"/>
	<rect id="XMLID_167_" x="72.4" y="40.5" class="st4" width="1.2" height="5"/>
	<rect id="XMLID_166_" x="74.3" y="40.5" class="st4" width="1" height="5"/>
	<rect id="XMLID_165_" x="76.1" y="40.5" class="st4" width="1.6" height="5"/>
	<rect id="XMLID_164_" x="78.4" y="40.5" class="st4" width="0.6" height="5"/>
	<rect id="XMLID_163_" x="79.6" y="40.5" class="st4" width="1.3" height="5"/>
	<rect id="XMLID_162_" x="81.7" y="40.5" class="st4" width="0.5" height="5"/>
	<polygon id="XMLID_161_" class="st4" points="8.8,37.2 8,35.9 7.2,34.5 6.5,35.9 5.7,37.2 6.5,37.2 6.5,41 8,41 8,37.2 	"/>
	<rect id="XMLID_160_" x="5.6" y="41.3" class="st4" width="3.3" height="0.7"/>
	<rect id="XMLID_159_" class="st27" width="86.3" height="10.4"/>
	<polygon id="XMLID_158_" class="st28" points="38,10.4 38,20.4 43,15.7 47.7,20.4 47.7,10.4 	"/>
	<rect id="XMLID_157_" x="38" y="0" class="st4" width="9.7" height="10.4"/>
</g>
</svg>
