<?xml version="1.0" encoding="utf-8"?>
<!-- Generator: Adobe Illustrator 19.0.0, SVG Export Plug-In . SVG Version: 6.00 Build 0)  -->
<svg version="1.1" id="Capa_1" xmlns="http://www.w3.org/2000/svg" xmlns:xlink="http://www.w3.org/1999/xlink" x="0px" y="0px"
	 viewBox="0 0 98.6 74.8" style="enable-background:new 0 0 98.6 74.8;" xml:space="preserve">
<style type="text/css">
	.st0{fill:#00A5AD;}
	.st1{fill:#006E74;}
	.st2{opacity:5.000310e-002;}
	.st3{clip-path:url(#XMLID_80_);fill:#171921;}
	.st4{fill:#FFC800;}
	.st5{fill:#FBD80E;}
	.st6{fill:#FF8500;}
</style>
<g id="XMLID_141_">
	<path id="XMLID_155_" class="st0" d="M98.6,26c-0.1-1.1-0.5-2-1.3-2.7c-0.7-0.6-1.6-1-2.6-1h0h-76h0c-1,0-1.8,0.4-2.5,1
		c0,0,0,0,0,0c0,0,0,0,0,0l0,0c-0.4,0.4-0.7,0.8-0.9,1.3c0,0,0,0.1,0,0.1c-0.1,0.2-0.2,0.4-0.2,0.6c0,0.2-0.1,0.4-0.1,0.6
		c0,0.1,0,0.1,0,0.2v44.7c0,1.1,0.5,2.1,1.3,2.8l0,0c0,0,0.1,0,0.1,0.1c0,0,0,0,0,0l0,0c0.7,0.6,1.5,0.9,2.4,0.9h76
		c0.3,0,0.5,0,0.7-0.1c0.2,0,0.3-0.1,0.5-0.1c0.1,0,0.1,0,0.2-0.1c0.2-0.1,0.4-0.2,0.6-0.3c0,0,0,0,0,0c1.1-0.7,1.8-1.9,1.8-3.3
		V26.2L98.6,26L98.6,26z"/>
	<rect id="XMLID_154_" x="14.8" y="54.7" class="st1" width="83.8" height="10.9"/>
	<g id="XMLID_150_" class="st2">
		<g id="XMLID_151_">
			<defs>
				<rect id="XMLID_152_" x="14.9" y="22.4" width="83.2" height="52.4"/>
			</defs>
			<clipPath id="XMLID_80_">
				<use xlink:href="#XMLID_152_"  style="overflow:visible;"/>
			</clipPath>
			<path id="XMLID_153_" class="st3" d="M97.6,43.6l-7.3-21.2H18.7h0c-1,0-1.8,0.4-2.5,1c0,0,0,0,0,0c0,0,0,0,0,0l0,0
				c-0.4,0.4-0.7,0.8-0.9,1.3c0,0,0,0.1,0,0.1c-0.1,0.2-0.2,0.4-0.2,0.6c0,0.2-0.1,0.4-0.1,0.6c0,0.1,0,0.1,0,0.2v44.7
				c0,1.1,0.5,2.1,1.3,2.8l0,0c0,0,0.1,0,0.1,0.1c0,0,0,0,0,0l0,0c0.7,0.6,1.5,0.9,2.4,0.9h12.2l61.9-21.4c0.5-0.2,0.9-0.4,1.3-0.6
				c0.3-0.2,0.6-0.4,0.7-0.5l0.3-0.2c0,0,0.4-0.3,0.5-0.4l0.1-0.1l0.6-0.8C98,48.7,98.5,46.1,97.6,43.6"/>
		</g>
	</g>
	<path id="XMLID_149_" class="st4" d="M79.3,2.4c-0.4-1-1.1-1.7-2.1-2.1c-0.9-0.4-1.8-0.4-2.8-0.1l0,0L2.6,25h0
		c-0.9,0.3-1.6,1-2.1,1.7c0,0,0,0,0,0c0,0,0,0,0,0l0,0c-0.3,0.5-0.4,1-0.5,1.5c0,0,0,0.1,0,0.1c0,0.2,0,0.4,0,0.7
		c0,0.2,0.1,0.4,0.1,0.6c0,0.1,0,0.1,0,0.2l14.6,42.3c0.4,1.1,1.2,1.8,2.2,2.3l0,0c0,0,0.1,0,0.1,0c0,0,0,0,0,0l0,0
		c0.8,0.3,1.7,0.4,2.6,0.1l71.9-24.8c0.2-0.1,0.5-0.2,0.7-0.3c0.1-0.1,0.3-0.2,0.4-0.3c0.1,0,0.1-0.1,0.2-0.1
		c0.2-0.1,0.3-0.3,0.5-0.5c0,0,0,0,0,0c0.8-1,1.1-2.4,0.7-3.7L79.4,2.6L79.3,2.4L79.3,2.4z"/>
	<path id="XMLID_148_" class="st5" d="M77.2,18c0.3,1-0.2,2.1-1.2,2.5l-12.2,4.2c-1,0.3-2.1-0.2-2.5-1.2L58.5,15
		c-0.3-1,0.2-2.1,1.2-2.5l12.2-4.2c1-0.3,2.1,0.2,2.5,1.2L77.2,18z"/>
	<path id="XMLID_147_" class="st0" d="M38.5,28.9c1.5,4.5-0.8,9.3-5.3,10.9c-4.5,1.5-9.4-0.8-10.9-5.3c-1.5-4.5,0.8-9.3,5.3-10.9
		C32.1,22,37,24.4,38.5,28.9"/>
	<path id="XMLID_146_" class="st6" d="M19.4,35.5c-1-2.8-0.7-5.7,0.5-8.1c-1.3-0.2-2.8-0.1-4.1,0.3c-4.5,1.5-6.8,6.4-5.3,10.9
		c1.5,4.5,6.4,6.8,10.9,5.3c1.4-0.5,2.5-1.3,3.5-2.3C22.4,40.4,20.4,38.3,19.4,35.5"/>
	
		<rect id="XMLID_145_" x="18.8" y="58.5" transform="matrix(0.9453 -0.3262 0.3262 0.9453 -18.6841 11.5532)" class="st0" width="12.7" height="5.9"/>
	
		<rect id="XMLID_144_" x="36.7" y="52.3" transform="matrix(0.9452 -0.3265 0.3265 0.9452 -15.6874 17.1006)" class="st0" width="12.7" height="5.9"/>
	
		<rect id="XMLID_143_" x="54.7" y="46.1" transform="matrix(0.9452 -0.3266 0.3266 0.9452 -12.6753 22.6386)" class="st0" width="12.7" height="5.9"/>
	
		<rect id="XMLID_142_" x="72.7" y="39.9" transform="matrix(0.9452 -0.3265 0.3265 0.9452 -9.6596 28.1659)" class="st0" width="12.7" height="5.9"/>
</g>
</svg>
