<?xml version="1.0" encoding="utf-8"?>
<!-- Generator: Adobe Illustrator 19.0.0, SVG Export Plug-In . SVG Version: 6.00 Build 0)  -->
<svg version="1.1" id="Capa_1" xmlns="http://www.w3.org/2000/svg" xmlns:xlink="http://www.w3.org/1999/xlink" x="0px" y="0px"
	 viewBox="0 0 86.3 34.5" style="enable-background:new 0 0 86.3 34.5;" xml:space="preserve">
<style type="text/css">
	.st0{fill:#008996;}
</style>
<g id="XMLID_80_">
	<path id="XMLID_111_" class="st0" d="M27.9,9.4c0-0.5,0.3-0.8,0.8-0.8h2.9c0.5,0,0.8,0.3,0.8,0.8v4c1.1-0.3,2.2-0.7,3.8-0.7
		c4.2,0,7,2.5,7,7.4c0,4.9-2.8,7.4-8.3,7.4c-2.5,0-5.6-0.7-7-1.5V9.4z M32.4,24c0.6,0.2,1.7,0.3,2.7,0.3c2.5,0,3.4-1.3,3.4-4.2
		c0-3-0.9-4.3-3.3-4.3c-0.7,0-1.7,0.2-2.8,0.5V24z"/>
	<path id="XMLID_88_" class="st0" d="M45.5,9.8c0-0.9,0.6-1.5,1.5-1.5h1.6c0.9,0,1.5,0.6,1.5,1.5v0.5c0,0.9-0.6,1.5-1.5,1.5H47
		c-0.9,0-1.5-0.6-1.5-1.5V9.8z M46.4,27.2c-0.5,0-0.8-0.3-0.8-0.8V14.1c0-0.5,0.3-0.8,0.8-0.8h2.9c0.5,0,0.8,0.3,0.8,0.8v12.3
		c0,0.5-0.3,0.8-0.8,0.8H46.4z"/>
	<path id="XMLID_87_" class="st0" d="M58.9,27.5c-3.7,0-5.6-1.9-5.6-5.9V9.4c0-0.5,0.3-0.8,0.8-0.8H57c0.5,0,0.8,0.3,0.8,0.8v4.3
		h3.6c0.5,0,0.8,0.3,0.8,0.8v1.5c0,0.5-0.3,0.8-0.8,0.8h-3.6v4.8c0,1.8,0.9,2.8,2.3,2.8c0.7,0,1.2-0.2,1.8-0.2h0.5
		c0.5,0,0.8,0.3,0.8,0.8v1.4c0,0.4-0.3,0.7-0.8,0.8C61.6,27.4,60.1,27.5,58.9,27.5"/>
	<path id="XMLID_84_" class="st0" d="M68.8,21.5c0.2,2.1,1.1,3.1,3.3,3.1c1.1,0,2.1-0.3,2.6-0.9c0.3-0.4,0.8-0.7,1.5-0.7h1.9
		c0.5,0,0.8,0.3,0.8,0.8c0,2.8-2.9,3.7-7.1,3.7c-4.7,0-7.6-2.6-7.6-7.4c0-4.8,2.9-7.4,7.6-7.4c4.8,0,7.6,2.5,7.6,7.2v0.8
		c0,0.5-0.3,0.8-0.8,0.8H68.8z M68.8,18.7h6.1c-0.1-2-1-3.1-3-3.1C69.9,15.6,68.9,16.7,68.8,18.7"/>
	<path id="XMLID_83_" class="st0" d="M82.6,27.2c-0.5,0-0.8-0.3-0.8-0.8V9.4c0-0.5,0.3-0.8,0.8-0.8h2.9c0.4,0,0.8,0.3,0.8,0.8v17.1
		c0,0.5-0.3,0.8-0.8,0.8H82.6z"/>
	<path id="XMLID_82_" class="st0" d="M13.4,0H6.5C2.9,0,0,2.9,0,6.5c0,0.1,0,0.1,0,0.2l0,0v9.7c0,0,1.5-3.4,6.5-3.4h6.9
		c3.6,0,6.5-2.9,6.5-6.5C20,2.9,17,0,13.4,0"/>
	<path id="XMLID_81_" class="st0" d="M14.8,16.3H7.2c-4,0-7.2,3.2-7.2,7.2c0,0.1,0,0.2,0,0.3l0,0v10.7c0,0,1.7-3.8,7.2-3.8h7.6
		c4,0,7.2-3.2,7.2-7.2C22,19.5,18.8,16.3,14.8,16.3"/>
</g>
</svg>
